<svg width="169" height="168" viewBox="0 0 169 168" fill="none" xmlns="http://www.w3.org/2000/svg">
<path d="M100.01 19.13C101.663 18.4767 103.55 18.9935 104.64 20.3985L113.479 31.7935C114.111 32.608 115.033 33.1471 116.052 33.2985L130.317 35.4162C132.076 35.6773 133.452 37.0681 133.693 38.8298L135.65 53.1178C135.79 54.139 136.319 55.0668 137.126 55.7077L148.422 64.6742C149.814 65.7798 150.31 67.672 149.638 69.3184L144.189 82.6709C143.8 83.6252 143.794 84.6931 144.173 85.6518L149.471 99.0646C150.124 100.718 149.608 102.605 148.203 103.695L136.808 112.534C135.993 113.166 135.454 114.088 135.303 115.107L133.185 129.372C132.924 131.131 131.533 132.507 129.771 132.748L115.483 134.705C114.462 134.845 113.534 135.374 112.893 136.181L103.927 147.476C102.821 148.869 100.929 149.365 99.2828 148.693L85.9303 143.244C84.9759 142.855 83.9081 142.849 82.9494 143.228L69.5366 148.526C67.8828 149.179 65.9963 148.663 64.9064 147.258L56.0672 135.863C55.4354 135.048 54.5136 134.509 53.494 134.358L39.2289 132.24C37.47 131.979 36.0946 130.588 35.8533 128.826L33.8958 114.538C33.7558 113.517 33.2271 112.589 32.4198 111.948L21.1247 102.982C19.732 101.876 19.2364 99.9841 19.9082 98.3377L25.3569 84.9852C25.7464 84.0309 25.7523 82.963 25.3736 82.0043L20.0751 68.5915C19.4217 66.9377 19.9386 65.0512 21.3436 63.9613L32.7386 55.1221C33.553 54.4903 34.0922 53.5685 34.2435 52.5489L36.3612 38.2838C36.6223 36.5249 38.0132 35.1496 39.7749 34.9082L54.0629 32.9507C55.0841 32.8108 56.0119 32.282 56.6528 31.4747L65.6193 20.1796C66.7249 18.7869 68.6171 18.2913 70.2635 18.9631L83.6159 24.4118C84.5703 24.8013 85.6382 24.8073 86.5969 24.4286L100.01 19.13Z" fill="#D9042B"/>
<path d="M65.0994 79.6211C62.0845 79.6211 59.341 78.9891 56.8688 77.725C54.4569 76.461 52.5274 74.7456 51.0803 72.5787C49.6934 70.4118 49 68.0041 49 65.3557C49 62.7072 49.6934 60.2996 51.0803 58.1327C52.5274 55.9658 54.4569 54.2503 56.8688 52.9863C59.341 51.7223 62.0845 51.0903 65.0994 51.0903C68.1142 51.0903 70.8276 51.7223 73.2395 52.9863C75.7117 54.2503 77.6412 55.9658 79.028 58.1327C80.4752 60.2996 81.1987 62.7072 81.1987 65.3557C81.1987 68.0041 80.4752 70.4118 79.028 72.5787C77.6412 74.7456 75.7117 76.461 73.2395 77.725C70.8276 78.9891 68.1142 79.6211 65.0994 79.6211ZM65.0994 71.4952C65.8832 71.4952 66.6068 71.2243 67.2701 70.6826C67.9333 70.0807 68.4459 69.3283 68.8076 68.4254C69.2297 67.4624 69.4408 66.4391 69.4408 65.3557C69.4408 64.212 69.2297 63.1888 68.8076 62.2859C68.4459 61.383 67.9333 60.6607 67.2701 60.119C66.6068 59.5171 65.8832 59.2161 65.0994 59.2161C64.3155 59.2161 63.5919 59.5171 62.9287 60.119C62.2654 60.6607 61.7227 61.383 61.3006 62.2859C60.9389 63.1888 60.758 64.212 60.758 65.3557C60.758 66.4391 60.9389 67.4624 61.3006 68.4254C61.7227 69.3283 62.2654 70.0807 62.9287 70.6826C63.5919 71.2243 64.3155 71.4952 65.0994 71.4952ZM103.901 117C100.886 117 98.1423 116.368 95.6701 115.104C93.2582 113.84 91.3287 112.124 89.8815 109.958C88.4947 107.791 87.8013 105.383 87.8013 102.735C87.8013 100.086 88.4947 97.6785 89.8815 95.5116C91.3287 93.3447 93.2582 91.6293 95.6701 90.3653C98.1423 89.1012 100.886 88.4692 103.901 88.4692C106.916 88.4692 109.629 89.1012 112.041 90.3653C114.513 91.6293 116.442 93.3447 117.829 95.5116C119.276 97.6785 120 100.086 120 102.735C120 105.383 119.276 107.791 117.829 109.958C116.442 112.124 114.513 113.84 112.041 115.104C109.629 116.368 106.916 117 103.901 117ZM103.901 108.874C104.685 108.874 105.408 108.603 106.071 108.062C106.735 107.46 107.247 106.707 107.609 105.804C108.031 104.841 108.242 103.818 108.242 102.735C108.242 101.591 108.031 100.568 107.609 99.6648C107.247 98.762 106.735 98.0397 106.071 97.4979C105.408 96.896 104.685 96.5951 103.901 96.5951C103.117 96.5951 102.393 96.896 101.73 97.4979C101.067 98.0397 100.524 98.762 100.102 99.6648C99.7401 100.568 99.5592 101.591 99.5592 102.735C99.5592 103.818 99.7401 104.841 100.102 105.804C100.524 106.707 101.067 107.46 101.73 108.062C102.393 108.603 103.117 108.874 103.901 108.874ZM56.5975 110.228L82.1936 81.4268L104.896 51L112.403 57.7715L87.8917 85.6703L64.1045 117L56.5975 110.228Z" fill="white"/>
</svg>
